<?xml version="1.0" standalone="no"?>
<!DOCTYPE svg PUBLIC "-//W3C//DTD SVG 20010904//EN"
 "http://www.w3.org/TR/2001/REC-SVG-20010904/DTD/svg10.dtd">
<svg version="1.0" xmlns="http://www.w3.org/2000/svg"
 width="640.000000pt" height="640.000000pt" viewBox="0 0 640.000000 640.000000"
 preserveAspectRatio="xMidYMid meet">
<metadata>
Created by potrace 1.11, written by Peter Selinger 2001-2013
</metadata>
<g transform="translate(0.000000,640.000000) scale(0.100000,-0.100000)"
fill="#000000" stroke="none">
<path d="M1765 5442 c-42 -7 -73 -24 -84 -48 -7 -17 -10 -167 -8 -504 l2 -479
23 -23 c20 -20 33 -23 102 -23 69 0 82 3 102 23 22 21 23 31 26 202 l3 180
172 0 c187 0 213 6 235 53 19 40 18 126 -1 164 -22 42 -46 46 -244 45 l-163
-1 0 75 c0 70 1 74 23 75 12 0 126 1 253 1 296 0 300 1 308 118 4 63 -10 107
-41 127 -24 16 -60 18 -357 18 -182 0 -340 -1 -351 -3z"/>
<path d="M3494 5149 c-117 -14 -238 -82 -294 -167 -103 -155 -79 -403 51 -531
38 -37 129 -88 172 -97 114 -23 307 -10 379 27 69 35 82 100 37 175 -25 41
-59 56 -101 43 -18 -6 -42 -13 -53 -16 -11 -3 -53 -8 -92 -10 -60 -4 -80 -1
-116 16 -34 17 -67 53 -67 74 0 2 80 2 178 2 194 -1 240 6 272 40 54 57 61
176 15 266 -70 140 -197 199 -381 178z m131 -254 c29 -28 32 -57 9 -79 -12
-13 -38 -16 -120 -16 -115 0 -122 5 -82 55 53 67 147 87 193 40z"/>
<path d="M4335 5149 c-130 -18 -265 -108 -312 -209 -46 -101 -53 -219 -18
-325 66 -199 215 -287 460 -271 146 9 218 36 240 90 26 62 -24 164 -83 173 -8
1 -32 -5 -54 -13 -94 -33 -188 -35 -243 -4 -41 22 -65 46 -65 64 0 7 64 11
193 11 173 1 197 3 227 20 100 59 96 247 -8 366 -39 45 -125 88 -188 95 -27 3
-60 6 -74 8 -14 1 -47 -1 -75 -5z m124 -242 c35 -17 48 -63 25 -88 -15 -16
-31 -19 -121 -19 -95 0 -103 2 -103 19 0 11 21 38 46 60 39 34 54 41 88 41 23
0 52 -6 65 -13z"/>
<path d="M2910 5141 c-39 -12 -89 -40 -111 -62 -13 -13 -19 -15 -19 -6 0 48
-117 83 -195 57 -61 -20 -63 -33 -60 -385 1 -170 3 -318 3 -328 4 -43 122 -72
197 -47 52 17 59 47 60 260 0 102 4 194 8 205 16 45 121 74 174 47 15 -7 54
-9 85 -3 18 3 57 91 62 138 5 60 -10 88 -59 109 -42 17 -114 25 -145 15z"/>
<path d="M615 4753 c-63 -22 -105 -61 -136 -127 -42 -91 -54 -212 -36 -361 15
-114 19 -142 27 -175 5 -19 12 -51 15 -70 3 -19 26 -107 50 -195 126 -462 226
-723 353 -920 79 -123 155 -185 228 -185 88 0 142 78 161 235 12 93 4 350 -12
435 -3 13 -7 42 -10 65 -24 175 -138 616 -202 785 -3 8 -7 20 -9 25 -1 6 -20
54 -42 108 -123 297 -254 426 -387 380z"/>
<path d="M5558 4726 c-61 -29 -94 -57 -146 -124 -69 -88 -162 -295 -213 -477
-17 -61 -74 -272 -85 -315 -82 -334 -112 -549 -108 -765 3 -191 34 -283 105
-319 43 -21 74 -20 126 5 133 64 318 400 438 794 40 133 120 439 129 499 4 22
8 48 11 60 8 34 15 78 21 131 3 28 8 61 10 75 6 36 5 210 -1 245 -27 144 -79
200 -192 208 -38 3 -64 -2 -95 -17z"/>
<path d="M2017 3809 c-21 -3 -48 -16 -60 -28 -22 -22 -22 -22 -22 -511 l0
-489 23 -23 c20 -20 33 -23 103 -23 76 0 82 2 105 28 23 27 24 33 24 203 l0
174 168 1 c194 1 199 1 226 28 28 28 35 144 12 189 -21 40 -44 44 -247 45
l-159 0 0 74 0 73 38 0 c20 1 133 1 251 1 118 1 226 5 241 11 40 13 54 49 53
131 -1 64 -4 74 -28 94 -14 13 -40 24 -58 24 -121 5 -639 3 -670 -2z"/>
<path d="M2835 3500 c-48 -19 -50 -30 -49 -254 0 -188 3 -217 21 -268 58 -157
191 -253 336 -242 51 4 84 19 132 57 l30 25 10 -32 c13 -40 57 -56 140 -50 49
3 64 8 83 29 25 29 24 9 23 444 0 240 -5 271 -47 290 -31 14 -124 14 -159 1
-44 -17 -52 -57 -53 -248 0 -141 -3 -178 -16 -197 -50 -77 -175 -82 -222 -10
-15 23 -18 54 -20 211 -2 200 -8 224 -60 244 -30 12 -121 12 -149 0z"/>
<path d="M3743 3503 c-13 -2 -32 -16 -43 -30 -19 -25 -20 -40 -20 -344 0 -177
4 -329 10 -343 5 -14 19 -30 30 -36 29 -16 113 -20 155 -9 58 16 65 43 65 241
0 191 4 208 59 245 56 38 127 27 176 -26 17 -20 19 -40 22 -212 2 -106 7 -199
13 -209 19 -36 67 -52 131 -46 74 6 94 17 108 58 14 40 14 339 -1 417 -29 160
-151 281 -301 297 -65 7 -109 -5 -166 -47 -48 -34 -51 -35 -51 -11 0 35 -37
56 -103 58 -34 1 -72 0 -84 -3z"/>
<path d="M1247 2588 c-170 -36 -291 -218 -222 -335 45 -76 173 -91 288 -35
101 50 159 126 160 212 1 120 -93 186 -226 158z"/>
<path d="M5009 2560 c-185 -31 -274 -184 -167 -287 97 -94 280 -106 387 -26
45 35 75 103 68 160 -11 101 -152 175 -288 153z"/>
<path d="M3049 2251 l-24 -19 0 -359 1 -358 24 -50 c22 -44 31 -52 75 -67 51
-18 161 -24 182 -10 20 13 32 58 28 108 -4 55 -17 71 -63 77 -19 3 -37 8 -40
12 -4 3 -7 144 -7 313 -1 169 -4 317 -9 330 -15 44 -123 59 -167 23z"/>
<path d="M3423 2244 c-23 -23 -25 -31 -21 -86 6 -75 20 -88 100 -88 78 0 98
19 98 95 0 76 -27 105 -100 105 -41 0 -56 -5 -77 -26z"/>
<path d="M1695 2205 c-116 -48 -204 -134 -246 -242 -33 -84 -33 -243 0 -326
58 -148 212 -261 364 -271 63 -4 159 19 218 50 53 30 139 115 165 167 40 77
53 136 51 235 -2 86 -6 105 -33 163 -38 79 -86 135 -157 182 -106 71 -251 88
-362 42z m198 -186 c49 -13 115 -73 137 -122 22 -49 20 -159 -3 -204 -66 -126
-221 -160 -323 -70 -127 110 -96 325 56 390 42 19 82 20 133 6z"/>
<path d="M4610 1985 c-156 -40 -240 -156 -234 -319 2 -53 10 -83 34 -132 54
-110 149 -165 290 -166 208 -2 291 61 218 168 -24 36 -60 44 -98 24 -36 -19
-133 -22 -173 -5 -30 12 -57 40 -57 58 0 2 67 4 150 4 161 1 182 6 216 58 24
36 21 124 -6 179 -27 57 -88 110 -143 125 -60 17 -145 20 -197 6z m148 -188
c7 -6 12 -24 10 -41 l-3 -31 -87 -1 c-100 -2 -110 7 -58 56 42 39 101 46 138
17z"/>
<path d="M2389 1983 c-59 -9 -61 -17 -62 -299 l0 -257 28 -24 c36 -32 119 -30
151 2 20 20 22 33 23 156 1 74 6 148 12 165 24 75 151 73 179 -2 6 -14 10 -85
10 -159 0 -168 7 -180 99 -180 48 0 65 4 81 21 20 19 22 32 22 170 0 159 -9
213 -47 280 -70 120 -234 164 -324 88 l-31 -26 -9 25 c-6 14 -18 28 -28 31
-30 9 -76 13 -104 9z"/>
<path d="M3455 1978 c-54 -14 -55 -20 -55 -295 l0 -254 25 -24 c27 -28 94 -34
139 -14 34 16 38 41 38 262 -1 290 0 283 -19 306 -20 23 -80 32 -128 19z"/>
<path d="M3752 1980 c-19 -4 -39 -13 -45 -19 -12 -12 -20 -473 -9 -528 12 -64
167 -72 189 -9 4 12 7 80 8 151 1 72 5 140 9 152 15 47 95 70 146 43 36 -19
43 -50 45 -190 1 -74 5 -145 9 -156 16 -50 142 -59 178 -14 17 20 18 41 16
189 -3 155 -5 170 -29 221 -15 30 -42 70 -60 89 -84 84 -218 97 -295 29 -21
-19 -22 -19 -28 5 -4 19 -16 27 -50 36 -25 6 -46 11 -48 10 -2 -1 -18 -5 -36
-9z"/>
</g>
</svg>
