<?xml version="1.0" encoding="UTF-8" standalone="yes"?>
<svg viewBox="0 0 341 512" xmlns="http://www.w3.org/2000/svg">
<path d="m139 117c-1.643 11.789-33.837 20.361-41.741 28.26-6.3388 6.335-10.234 19.689-16.029 26.93-4.5527 5.689 4.0836 24.713-6.2302 24.81v68c-6e-4 6.253-6.6817 16.352-4.2069 21.249 4.6803 9.261 16.714 6.751 25.207 6.751 0.4524-4.354 4.576-5.566 4.93-10.069 0.912-11.594-3.9997-29.849 0.862-40.459 1.347-2.94 6.021-18.762 8.456-17.064 6.465 4.505 1.752 40.635 1.752 48.592 0 41.114-5 78.938-5 119 0 10.019-4.522 34.628 1.191 42.887 6.532 9.446 26.398 7.428 36.661 5.965 10.282-1.465-1.852-21.598-0.571-27.708 2.599-12.396 8.666-28.662 9.649-41.213 1.028-13.114-3.41-27.813 4.84-38.121 4.066-5.081 0.478-22.709 13.094-20.497 10.658 1.868 6.035 15.085 10.366 20.497 8.25 10.308 3.812 25.007 4.84 38.121 0.983 12.551 7.049 28.817 9.649 41.213 1.655 7.888-2.19 17.84 0.782 25.355 1.781 4.501 42.491 4.99 46.239 1.241 8.53-8.53-6.258-15.877-8.929-21.23-2.178-4.364-0.811-11.748-0.811-16.51 0-45.088-5-87.113-5-133 0-7.445-4.371-40.325 1.752-44.592 5.243-3.655 4.246 12.627 4.248 14.592 0.021 16.507 8.25 37.099 10 53 6.428 0 15.375 2.327 16-6 8.079 1.145 5-15.589 5-21v-69c-10.314-0.097-1.677-19.121-6.23-24.81-5.797-7.243-9.69-20.591-16.03-26.93-8.081-8.082-40.098-16.479-41.74-28.26-7.493-0.052-13.898-11.616-10.178-18.498 2.839-5.254 16.317-8.1021 20.367-15.294 10.058-17.858 11.776-70.02-15.258-72.138-13.79-1.0805-59.792-6.4083-68.109 6.7518-8.638 13.667-10.115 52.905 0.408 65.988 4.403 5.4737 17.585 10.319 19.948 14.692 3.72 6.8825-2.685 18.446-10.178 18.498z" fill="#020202"/>
</svg>
