<!DOCTYPE svg PUBLIC "-//W3C//DTD SVG 20010904//EN" "http://www.w3.org/TR/2001/REC-SVG-20010904/DTD/svg10.dtd">
<svg version="1.0" xmlns="http://www.w3.org/2000/svg" width="1262px" height="589px" viewBox="0 0 12620 5890" preserveAspectRatio="xMidYMid meet">
  <g id="layer101" fill="#000000" stroke="none">
    <path
      d="M1460 5685 l0 -95 -200 0 -200 0 0 -100 0 -100 -95 0 -95 0 0 -100 0 -100 -100 0 -100 0 0 -95 0 -95 -100 0 -100 0 0 -395 0 -395 100 0 100 0 0 -100 0 -100 100 0 100 0 0 -95 0 -95 95 0 95 0 0 -295 0 -295 -95 0 -95 0 0 -100 0 -100 -100 0 -100 0 0 -195 0 -195 -100 0 -100 0 0 -295 0 -295 100 0 100 0 0 -100 0 -100 100 0 100 0 0 -95 0 -95 95 0 95 0 0 -100 0 -100 200 0 200 0 0 -100 0 -100 785 0 785 0 0 100 0 100 95 0 95 0 0 100 0 100 100 0 100 0 0 95 0 95 100 0 100 0 0 100 0 100 295 0 295 0 0 100 0 100 1180 0 1180 0 0 -100 0 -100 490 0 490 0 0 -100 0 -100 390 0 390 0 0 -95 0 -95 200 0 200 0 0 -100 0 -100 295 0 295 0 0 -100 0 -100 95 0 95 0 0 -95 0 -95 100 0 100 0 0 -100 0 -100 100 0 100 0 0 -100 0 -100 95 0 95 0 0 -95 0 -95 100 0 100 0 0 -100 0 -100 195 0 195 0 0 -100 0 -100 295 0 295 0 0 100 0 100 195 0 195 0 0 100 0 100 100 0 100 0 0 95 0 95 100 0 100 0 0 100 0 100 95 0 95 0 0 195 0 195 100 0 100 0 0 395 0 395 -100 0 -100 0 0 100 0 100 -95 0 -95 0 0 95 0 95 -100 0 -100 0 0 100 0 100 -100 0 -100 0 0 100 0 100 100 0 100 0 0 95 0 95 195 0 195 0 0 100 0 100 100 0 100 0 0 490 0 490 -100 0 -100 0 0 100 0 100 -95 0 -95 0 0 95 0 95 -100 0 -100 0 0 100 0 100 -100 0 -100 0 0 100 0 100 -95 0 -95 0 0 95 0 95 -690 0 -690 0 0 -95 0 -95 -195 0 -195 0 0 -100 0 -100 -195 0 -195 0 0 -100 0 -100 -495 0 -495 0 0 -95 0 -95 -1470 0 -1470 0 0 95 0 95 -495 0 -495 0 0 100 0 100 -95 0 -95 0 0 100 0 100 -100 0 -100 0 0 95 0 95 -395 0 -395 0 0 100 0 100 -195 0 -195 0 0 100 0 100 -100 0 -100 0 0 95 0 95 -585 0 -585 0 0 -95z"/>
  </g>
  <g id="layer102" fill="#f8f0d6" stroke="none">
    <path
      d="M1460 5490 l0 -100 -200 0 -200 0 0 -100 0 -100 -95 0 -95 0 0 -95 0 -95 -100 0 -100 0 0 -395 0 -395 100 0 100 0 0 -100 0 -100 95 0 95 0 0 -95 0 -95 100 0 100 0 0 -295 0 -295 -100 0 -100 0 0 -100 0 -100 -95 0 -95 0 0 -195 0 -195 -100 0 -100 0 0 -295 0 -295 100 0 100 0 0 -100 0 -100 95 0 95 0 0 -95 0 -95 200 0 200 0 0 -100 0 -100 785 0 785 0 0 100 0 100 95 0 95 0 0 95 0 95 100 0 100 0 0 100 0 100 100 0 100 0 0 100 0 100 295 0 295 0 0 95 0 95 1180 0 1180 0 0 -95 0 -95 490 0 490 0 0 -100 0 -100 390 0 390 0 0 -100 0 -100 200 0 200 0 0 -95 0 -95 295 0 295 0 0 -100 0 -100 195 0 195 0 0 -195 0 -195 100 0 100 0 0 -100 0 -100 95 0 95 0 0 -100 0 -100 100 0 100 0 0 -95 0 -95 195 0 195 0 0 -100 0 -100 295 0 295 0 0 100 0 100 195 0 195 0 0 95 0 95 100 0 100 0 0 100 0 100 100 0 100 0 0 195 0 195 95 0 95 0 0 395 0 395 -95 0 -95 0 0 100 0 100 -200 0 -200 0 0 195 0 195 -95 0 -95 0 0 195 0 195 195 0 195 0 0 100 0 100 195 0 195 0 0 490 0 490 -95 0 -95 0 0 100 0 100 -100 0 -100 0 0 95 0 95 -195 0 -195 0 0 200 0 200 -690 0 -690 0 0 -100 0 -100 -195 0 -195 0 0 -100 0 -100 -195 0 -195 0 0 -95 0 -95 -495 0 -495 0 0 -100 0 -100 -1470 0 -1470 0 0 100 0 100 -495 0 -495 0 0 95 0 95 -95 0 -95 0 0 100 0 100 -100 0 -100 0 0 100 0 100 -395 0 -395 0 0 95 0 95 -195 0 -195 0 0 100 0 100 -100 0 -100 0 0 100 0 100 -585 0 -585 0 0 -100z"/>
  </g>

</svg>
