<?xml version="1.0" standalone="no"?>
<!DOCTYPE svg PUBLIC "-//W3C//DTD SVG 20010904//EN"
 "http://www.w3.org/TR/2001/REC-SVG-20010904/DTD/svg10.dtd">
<svg version="1.0" xmlns="http://www.w3.org/2000/svg"
 width="580.000000pt" height="580.000000pt" viewBox="0 0 580.000000 580.000000"
 preserveAspectRatio="xMidYMid meet">
<metadata>
Created by potrace 1.11, written by Peter Selinger 2001-2013
</metadata>
<g transform="translate(0.000000,580.000000) scale(0.100000,-0.100000)"
fill="#000000" stroke="none">
<path d="M2907 5484 c-1 -2 -15 -4 -30 -6 -40 -6 -53 -33 -56 -123 -1 -44 -6
-83 -9 -87 -4 -4 -254 -9 -557 -11 -302 -2 -558 -8 -567 -12 -24 -10 -38 -66
-38 -151 l0 -72 -132 -2 c-256 -4 -313 -10 -316 -33 -1 -7 -5 -104 -8 -217 -3
-113 -9 -208 -12 -212 -4 -3 -43 -8 -87 -9 -89 -3 -134 -19 -136 -49 -1 -11
-3 -29 -4 -40 -1 -11 -3 -46 -4 -78 l-1 -58 -87 -3 c-49 -1 -142 -3 -208 -5
-69 -1 -130 -8 -142 -15 -26 -13 -24 8 -29 -286 -2 -110 -4 -229 -4 -265 -1
-36 -1 -69 0 -75 1 -5 1 -14 0 -20 -1 -5 -2 -59 -2 -120 0 -60 -2 -117 -4
-126 -4 -13 -23 -17 -94 -21 -135 -8 -125 23 -124 -386 l0 -345 23 -16 c23
-15 43 -18 148 -22 l52 -2 -2 -81 -2 -81 -94 -7 c-63 -4 -98 -11 -109 -21 -11
-11 -15 -40 -17 -104 0 -48 1 -98 3 -111 6 -32 37 -45 117 -50 39 -2 78 -4 87
-5 15 -1 17 -12 17 -72 0 -162 9 -343 20 -362 12 -24 34 -29 132 -32 40 -1 76
-4 79 -6 12 -8 9 -166 -4 -170 -6 -2 -47 -6 -91 -8 -120 -5 -133 -18 -129
-137 2 -104 2 -104 17 -124 13 -18 50 -24 159 -25 55 -1 56 -2 62 -121 5 -78
17 -99 60 -101 61 -4 175 -8 284 -9 l122 -2 1 -142 c1 -261 9 -315 46 -317 59
-4 181 -4 196 -1 10 3 23 14 29 26 11 19 13 39 19 154 l2 42 313 0 c172 -1
315 -4 318 -9 3 -4 6 -38 7 -77 1 -38 7 -83 14 -100 16 -38 21 -39 232 -39 84
0 153 -4 153 -8 0 -5 4 -6 8 -3 9 5 49 7 193 6 l97 -1 1 -72 c1 -92 9 -133 29
-149 11 -10 87 -13 320 -14 309 0 384 4 404 24 6 6 13 53 15 104 3 51 8 96 11
100 4 3 48 9 97 12 50 3 91 5 92 6 10 2 27 54 29 90 1 25 3 64 5 87 l3 43 83
0 83 0 1 -137 c1 -265 8 -316 46 -325 35 -9 214 -1 225 10 19 19 24 85 27 382
1 162 5 298 7 302 2 4 21 7 42 8 164 3 174 9 180 116 2 43 4 87 5 97 1 15 11
17 84 16 l83 -1 1 -62 c1 -33 2 -68 3 -76 2 -8 3 -25 4 -37 3 -33 38 -46 132
-48 98 -2 136 8 146 38 8 24 12 112 13 293 l1 121 63 2 c34 1 71 4 82 6 11 2
28 4 37 4 34 2 41 40 45 241 2 107 6 200 8 207 2 7 24 12 52 12 130 0 360 9
375 16 25 10 35 51 33 146 -1 122 -8 131 -116 136 -46 2 -89 5 -95 8 -6 2 -12
25 -13 52 -2 41 -7 112 -10 135 -2 18 -51 31 -125 35 -45 2 -86 6 -92 8 -7 2
-12 34 -13 83 l-1 79 51 2 c78 1 153 11 163 21 18 17 22 99 21 404 l-1 309
-23 16 c-26 17 -35 18 -138 21 l-72 3 1 83 c1 71 3 83 19 87 11 3 19 1 19 -3
0 -4 8 -6 18 -4 15 4 79 10 135 13 11 1 23 15 31 34 15 38 15 202 0 217 -21
21 -73 26 -259 29 -104 1 -191 3 -192 4 -1 1 -3 135 -4 297 -2 162 -6 313 -10
334 -10 58 -23 63 -165 65 l-62 1 -1 74 c-1 100 -18 150 -51 154 -14 2 -164 5
-335 8 -170 3 -311 7 -312 7 -1 1 -3 44 -6 95 -3 76 -7 95 -23 107 -10 8 -23
15 -29 16 -24 3 -160 8 -277 9 l-128 2 -1 141 c-1 124 -3 179 -8 274 -2 44
-27 47 -359 48 -172 1 -314 0 -315 -1z"/>
</g>
</svg>
